G04 ================== begin FILE IDENTIFICATION RECORD ==================*
G04 Layout Name:  proiect_osc_triunghiular.brd*
G04 Film Name:    SS2*
G04 File Format:  Gerber RS274X*
G04 File Origin:  Cadence Allegro 17.4-S028*
G04 Origin Date:  Sat Dec 10 17:45:06 2022*
G04 *
G04 Layer:  USER PART NUMBER/SILKSCREEN_TOP*
G04 Layer:  TOLERANCE/SILKSCREEN_TOP*
G04 Layer:  REF DES/SILKSCREEN_TOP*
G04 Layer:  PACKAGE GEOMETRY/SILKSCREEN_TOP*
G04 Layer:  DEVICE TYPE/SILKSCREEN_TOP*
G04 Layer:  COMPONENT VALUE/SILKSCREEN_TOP*
G04 Layer:  BOARD GEOMETRY/SILKSCREEN_TOP*
G04 *
G04 Offset:    (0.0000 0.0000)*
G04 Mirror:    No*
G04 Mode:      Positive*
G04 Rotation:  0*
G04 FullContactRelief:  No*
G04 UndefLineWidth:     0.0000*
G04 ================== end FILE IDENTIFICATION RECORD ====================*
%FSLAX25Y25*MOIN*%
%IR0*IPPOS*OFA0.00000B0.00000*MIA0B0*SFA1.00000B1.00000*%
%ADD10C,.005*%
%ADD11C,.006*%
%ADD12C,.007874*%
G75*
%LPD*%
G75*
G54D10*
G01X5883Y5623D02*
Y8123D01*
X6924D01*
X7258Y7998D01*
X7466Y7832D01*
X7549Y7498D01*
X7466Y7165D01*
X7216Y6957D01*
X6924Y6832D01*
X5883D01*
G01X6924D02*
X7549Y5623D01*
G01X9816D02*
X9566Y5665D01*
X9316Y5831D01*
X9149Y6123D01*
X9066Y6457D01*
X9149Y6790D01*
X9316Y7082D01*
X9566Y7248D01*
X9816Y7290D01*
X10066Y7248D01*
X10316Y7082D01*
X10483Y6790D01*
X10524Y6457D01*
X10483Y6123D01*
X10316Y5831D01*
X10066Y5665D01*
X9816Y5623D01*
G01X12166D02*
Y8123D01*
G01Y6873D02*
X12374Y7123D01*
X12624Y7248D01*
X12874Y7290D01*
X13249Y7206D01*
X13499Y7040D01*
X13666Y6748D01*
Y6415D01*
X13583Y6082D01*
X13416Y5831D01*
X13124Y5665D01*
X12874Y5623D01*
X12624Y5665D01*
X12374Y5790D01*
X12166Y5998D01*
G01X15391Y6748D02*
X16724D01*
X16599Y7040D01*
X16391Y7206D01*
X16099Y7290D01*
X15808Y7248D01*
X15558Y7123D01*
X15391Y6832D01*
X15308Y6581D01*
Y6332D01*
X15391Y6082D01*
X15599Y5831D01*
X15849Y5665D01*
X16141Y5623D01*
X16433Y5707D01*
X16724Y5956D01*
G01X18533Y5623D02*
Y7290D01*
G01Y6957D02*
X18741Y7123D01*
X18949Y7248D01*
X19241Y7290D01*
X19449Y7248D01*
X19699Y7123D01*
G01X22216Y8123D02*
Y5623D01*
G01X21633Y7290D02*
X22799D01*
G01X5733Y9322D02*
Y11822D01*
X6567D01*
X6900Y11697D01*
X7150Y11530D01*
X7358Y11280D01*
X7525Y10988D01*
X7567Y10572D01*
X7525Y10155D01*
X7358Y9863D01*
X7150Y9613D01*
X6900Y9447D01*
X6567Y9322D01*
X5733D01*
G01X9042Y10988D02*
Y9822D01*
X9208Y9530D01*
X9458Y9363D01*
X9750Y9322D01*
X10042Y9363D01*
X10292Y9530D01*
X10458Y9822D01*
G01Y9322D02*
Y10988D01*
G01X12850Y11822D02*
Y9322D01*
G01X12267Y10988D02*
X13433D01*
G01X16700Y9322D02*
Y10988D01*
G01Y10697D02*
X16533Y10863D01*
X16283Y10947D01*
X15992Y10988D01*
X15700Y10905D01*
X15450Y10738D01*
X15283Y10488D01*
X15200Y10155D01*
X15283Y9822D01*
X15450Y9572D01*
X15700Y9405D01*
X15992Y9322D01*
X16283Y9363D01*
X16533Y9488D01*
X16700Y9655D01*
G01X6783Y12334D02*
Y14834D01*
X5241Y13042D01*
X7325D01*
G01X8466Y12834D02*
X8716Y12542D01*
X9049Y12375D01*
X9425Y12334D01*
X9758Y12375D01*
X10091Y12584D01*
X10299Y12834D01*
X10341Y13084D01*
X10258Y13375D01*
X9966Y13584D01*
X9674Y13667D01*
X9299D01*
G01X9674D02*
X9924Y13792D01*
X10133Y14000D01*
X10216Y14250D01*
X10133Y14500D01*
X9924Y14709D01*
X9549Y14834D01*
X9174Y14792D01*
X8799Y14625D01*
G01X12483Y12334D02*
Y14834D01*
X11983Y14334D01*
G01Y12334D02*
X12983D01*
G01X16499Y14625D02*
X16249Y14750D01*
X15958Y14834D01*
X15624D01*
X15249Y14709D01*
X14958Y14500D01*
X14749Y14250D01*
X14583Y13834D01*
X14541Y13459D01*
X14624Y13084D01*
X14749Y12834D01*
X14999Y12584D01*
X15291Y12417D01*
X15583Y12334D01*
X15874D01*
X16166Y12417D01*
X16416Y12542D01*
X16625Y12709D01*
G01X33887Y134314D02*
Y136814D01*
X34887D01*
X35220Y136689D01*
X35470Y136397D01*
X35554Y136064D01*
X35470Y135730D01*
X35262Y135480D01*
X34887Y135355D01*
X33887D01*
G01X37820Y134314D02*
X37487Y134355D01*
X37195Y134522D01*
X36945Y134772D01*
X36779Y135064D01*
X36695Y135397D01*
Y135730D01*
X36779Y136064D01*
X36945Y136355D01*
X37195Y136605D01*
X37487Y136772D01*
X37820Y136814D01*
X38154Y136772D01*
X38445Y136605D01*
X38695Y136355D01*
X38862Y136064D01*
X38945Y135730D01*
Y135397D01*
X38862Y135064D01*
X38695Y134772D01*
X38445Y134522D01*
X38154Y134355D01*
X37820Y134314D01*
G01X40920Y136814D02*
Y134314D01*
G01X39962Y136814D02*
X41879D01*
G01X44020Y134314D02*
Y136814D01*
X43520Y136314D01*
G01Y134314D02*
X44520D01*
G01X123180Y65659D02*
Y68159D01*
X124180D01*
X124514Y68034D01*
X124764Y67743D01*
X124847Y67409D01*
X124764Y67076D01*
X124555Y66826D01*
X124180Y66701D01*
X123180D01*
G01X127114Y65659D02*
X126780Y65701D01*
X126489Y65867D01*
X126239Y66118D01*
X126072Y66409D01*
X125989Y66743D01*
Y67076D01*
X126072Y67409D01*
X126239Y67701D01*
X126489Y67951D01*
X126780Y68118D01*
X127114Y68159D01*
X127447Y68118D01*
X127739Y67951D01*
X127989Y67701D01*
X128155Y67409D01*
X128239Y67076D01*
Y66743D01*
X128155Y66409D01*
X127989Y66118D01*
X127739Y65867D01*
X127447Y65701D01*
X127114Y65659D01*
G01X130214Y68159D02*
Y65659D01*
G01X129255Y68159D02*
X131172D01*
G01X132397Y66159D02*
X132647Y65867D01*
X132980Y65701D01*
X133355Y65659D01*
X133689Y65701D01*
X134022Y65909D01*
X134230Y66159D01*
X134272Y66409D01*
X134189Y66701D01*
X133897Y66909D01*
X133605Y66993D01*
X133230D01*
G01X133605D02*
X133855Y67118D01*
X134064Y67326D01*
X134147Y67576D01*
X134064Y67826D01*
X133855Y68034D01*
X133480Y68159D01*
X133105Y68118D01*
X132730Y67951D01*
G01X140022Y131573D02*
Y134073D01*
X141022D01*
X141356Y133948D01*
X141606Y133656D01*
X141689Y133323D01*
X141606Y132989D01*
X141397Y132739D01*
X141022Y132614D01*
X140022D01*
G01X143956Y131573D02*
X143622Y131614D01*
X143331Y131781D01*
X143081Y132031D01*
X142914Y132323D01*
X142831Y132656D01*
Y132989D01*
X142914Y133323D01*
X143081Y133614D01*
X143331Y133864D01*
X143622Y134031D01*
X143956Y134073D01*
X144289Y134031D01*
X144581Y133864D01*
X144831Y133614D01*
X144997Y133323D01*
X145081Y132989D01*
Y132656D01*
X144997Y132323D01*
X144831Y132031D01*
X144581Y131781D01*
X144289Y131614D01*
X143956Y131573D01*
G01X147056Y134073D02*
Y131573D01*
G01X146097Y134073D02*
X148014D01*
G01X149364Y133656D02*
X149614Y133906D01*
X149906Y134031D01*
X150239Y134073D01*
X150656Y133989D01*
X150947Y133781D01*
X151031Y133531D01*
X150989Y133281D01*
X150822Y133073D01*
X149989Y132656D01*
X149614Y132364D01*
X149364Y131948D01*
X149281Y131573D01*
X151031D01*
G54D11*
G01X38876Y153008D02*
X4376D01*
G01D02*
Y138008D01*
G01D02*
X38876D01*
G01X25246Y19728D02*
Y4728D01*
G01D02*
X59746D01*
G01Y19728D02*
X25246D01*
G01X18657Y33539D02*
X34657D01*
G01D02*
Y26039D01*
G01D02*
X18657D01*
G01D02*
Y33539D01*
G01X23351Y133668D02*
Y117668D01*
G01D02*
X15851D01*
G01D02*
Y133668D01*
G01X38876Y138008D02*
Y153008D01*
G01X15851Y133668D02*
X23351D01*
G01X59746Y4728D02*
Y19728D01*
G01X84499Y7217D02*
X68499D01*
G01D02*
Y14717D01*
G01D02*
X84499D01*
G01X61770Y62960D02*
X45770D01*
G01D02*
Y70460D01*
G01X61770D02*
Y62960D01*
G01X53527Y57999D02*
Y41999D01*
G01D02*
X46027D01*
G01D02*
Y57999D01*
G01D02*
X53527D01*
G01X45650Y81137D02*
X61650D01*
G01D02*
Y73637D01*
G01D02*
X45650D01*
G01D02*
Y81137D01*
G01X45770Y70460D02*
X61770D01*
G01X78064Y80356D02*
X70564D01*
G01D02*
Y96356D01*
G01D02*
X78064D01*
G01X66941Y129308D02*
Y113308D01*
G01D02*
X59441D01*
G01D02*
Y129308D01*
G01X73045Y113098D02*
Y129098D01*
G01X80545Y113098D02*
X73045D01*
G01X58652Y109235D02*
X74652D01*
G01Y101735D02*
X58652D01*
G01D02*
Y109235D01*
G01X59602Y134039D02*
Y150039D01*
G01D02*
X67102D01*
G01D02*
Y134039D01*
G01D02*
X59602D01*
G01X78535Y133847D02*
X71035D01*
G01D02*
Y149847D01*
G01D02*
X78535D01*
G01X59441Y129308D02*
X66941D01*
G01X73045Y129098D02*
X80545D01*
G01X84499Y14717D02*
Y7217D01*
G01X102451Y38916D02*
Y22916D01*
G01D02*
X94951D01*
G01D02*
Y38916D01*
G01X83414Y23036D02*
Y39036D01*
G01X90914D02*
Y23036D01*
G01D02*
X83414D01*
G01X108199Y7674D02*
X92199D01*
G01D02*
Y15174D01*
G01D02*
X108199D01*
G01X94951Y38916D02*
X102451D01*
G01X83414Y39036D02*
X90914D01*
G01X91603Y96818D02*
Y80818D01*
G01D02*
X84103D01*
G01D02*
Y96818D01*
G01D02*
X91603D01*
G01X78064Y96356D02*
Y80356D01*
G01X80545Y129098D02*
Y113098D01*
G01X74652Y109235D02*
Y101735D01*
G01X78535Y149847D02*
Y133847D01*
G01X94928Y149520D02*
Y133520D01*
G01D02*
X87428D01*
G01D02*
Y149520D01*
G01D02*
X94928D01*
G01X107213Y133652D02*
X99713D01*
G01D02*
Y149652D01*
G01D02*
X107213D01*
G01X118701Y19398D02*
Y4398D01*
G01D02*
X153201D01*
G01Y19398D02*
X118701D01*
G01X107044Y22904D02*
Y38904D01*
G01X114544D02*
Y22904D01*
G01D02*
X107044D01*
G01X118427Y23013D02*
Y39013D01*
G01X125927D02*
Y23013D01*
G01D02*
X118427D01*
G01X137257Y22916D02*
X129757D01*
G01D02*
Y38916D01*
G01X108199Y15174D02*
Y7674D01*
G01X107044Y38904D02*
X114544D01*
G01X118427Y39013D02*
X125927D01*
G01X129757Y38916D02*
X137257D01*
G01X133604Y56563D02*
X117604D01*
G01D02*
Y64063D01*
G01D02*
X133604D01*
G01D02*
Y56563D01*
G01X113759Y93420D02*
Y109420D01*
G01X121259D02*
Y93420D01*
G01D02*
X113759D01*
G01X109884Y70365D02*
Y86365D01*
G01D02*
X117384D01*
G01D02*
Y70365D01*
G01D02*
X109884D01*
G01X146468Y92011D02*
X130468D01*
G01D02*
Y99511D01*
G01X112644Y129176D02*
Y113176D01*
G01D02*
X105144D01*
G01D02*
Y129176D01*
G01X124400Y129308D02*
Y113308D01*
G01D02*
X116900D01*
G01D02*
Y129308D01*
G01X113759Y109420D02*
X121259D01*
G01X130468Y99511D02*
X146468D01*
G01X105144Y129176D02*
X112644D01*
G01X107213Y149652D02*
Y133652D01*
G01X116900Y129308D02*
X124400D01*
G01X153201Y4398D02*
Y19398D01*
G01X137257Y38916D02*
Y22916D01*
G01X149239Y39787D02*
Y23787D01*
G01D02*
X141739D01*
G01D02*
Y39787D01*
G01D02*
X149239D01*
G01X146468Y99511D02*
Y92011D01*
G54D12*
G01X33998Y118470D02*
X42857D01*
G01X38526Y113942D02*
Y122997D01*
G01X32620Y118470D02*
G03X38526Y112564I5906J0D01*
G03X44431Y118666I0J5909D01*
G03X38526Y124375I-5899J-193D01*
G03X32620Y118470I0J-5906D01*
G01X44038Y108627D02*
X48368D01*
Y128312D01*
X47187D01*
G01X33014Y108627D02*
X28683D01*
Y128312D01*
X29865D01*
G01X37542D02*
X39510D01*
G01X141292Y79145D02*
X132237D01*
G01X136764Y73239D02*
G03X142670Y79145I0J5906D01*
G03X136568Y85050I-5909J0D01*
G03X130859Y79145I193J-5899D01*
G03X136764Y73239I5906J0D01*
G01X126922Y78161D02*
Y80129D01*
G01X146607Y84657D02*
Y88987D01*
X126922D01*
Y87806D01*
G01X146607Y73633D02*
Y69302D01*
X126922D01*
Y70483D01*
G01X142973Y115814D02*
X134115D01*
G01X144351D02*
G03X138445Y121719I-5906J0D01*
G03X132540Y115617I0J-5909D01*
G03X138445Y109908I5899J193D01*
G03X144351Y115814I0J5906D01*
G01X132933Y125656D02*
X128603D01*
Y105971D01*
X129784D01*
G01X136764Y74617D02*
Y83475D01*
G01X138445Y120341D02*
Y111286D01*
G01X139429Y105971D02*
X137461D01*
G01X143957Y125656D02*
X148288D01*
Y105971D01*
X147107D01*
M02*
